<svg id="レイヤー_1" data-name="レイヤー 1" xmlns="http://www.w3.org/2000/svg" viewBox="0 0 1024 1024"><defs><style>.cls-1{fill:none;}.cls-2{fill:#78a0c8;}.cls-3{fill:#fff;}</style></defs><title>icon</title><path class="cls-1" d="M0,0H1024V1024H0Z"/><path class="cls-2" d="M938.67,188.56c0-56.77-46.46-103.23-103.23-103.23H170.28c-46.95,0-84.95,38.4-84.95,85.34l-.4,724.78c0,15.94,19.27,23.94,30.54,12.66l135-134.87A17.85,17.85,0,0,1,263.07,768H835.44c56.77,0,103.23-46.45,103.23-103.23Z"/><path class="cls-3" d="M721.12,559.83,644.21,498.3c-18.89-15.11-46.88-1.66-46.88,22.53v47.65a28.84,28.84,0,0,1-28.85,28.85H284.85A28.85,28.85,0,0,1,256,568.48V284.85A28.85,28.85,0,0,1,284.85,256H568.48a28.85,28.85,0,0,1,28.85,28.85V332.5c0,24.2,28,37.65,46.88,22.53l76.91-61.53C740,278.39,768,291.84,768,316V537.3C768,561.5,740,575,721.12,559.83Z"/><path class="cls-2" d="M245,806.2h31.52l11.34,60.11,16.61-60.11h31.4l16.65,60,11.35-60h31.35L371.58,913.57H339L320.21,846l-18.76,67.6H268.91Z"/><path class="cls-2" d="M490.46,882.08H430.69q.81,7.17,3.89,10.69a14.11,14.11,0,0,0,11.27,5.06,17,17,0,0,0,8.35-2.2,19.55,19.55,0,0,0,5.2-4.91l29.37,2.71q-6.74,11.72-16.26,16.81t-27.31,5.09q-15.46,0-24.32-4.36a35.74,35.74,0,0,1-14.69-13.84q-5.82-9.48-5.82-22.3,0-18.24,11.68-29.52T444.32,834q16.69,0,26.36,5.05a34.16,34.16,0,0,1,14.73,14.65q5,9.6,5,25ZM460.14,867.8q-.88-8.64-4.65-12.38a14.59,14.59,0,0,0-21.28,1.9q-2.71,3.52-3.44,10.48Z"/><path class="cls-2" d="M504.3,806.2h30.1v37.21a29.33,29.33,0,0,1,10.15-7A32.45,32.45,0,0,1,557.11,834a30.43,30.43,0,0,1,23.51,10.22q9.3,10.21,9.3,29.33A55.57,55.57,0,0,1,585.67,896q-4.24,9.71-11.75,14.5a30.31,30.31,0,0,1-16.66,4.8A30.76,30.76,0,0,1,542.9,912q-4.9-2.64-10.69-9.89v11.5H504.3Zm29.88,68.26q0,10,3.78,14.54a11.92,11.92,0,0,0,9.55,4.5,11.15,11.15,0,0,0,9-4.43q3.62-4.43,3.62-14.9,0-9.23-3.55-13.55A10.79,10.79,0,0,0,548,856.3a12.44,12.44,0,0,0-9.92,4.5Q534.19,865.3,534.18,874.46Z"/><path class="cls-2" d="M606.62,913.57V806.2h55.3q15.38,0,23.51,2.64a25,25,0,0,1,13.11,9.77q5,7.15,5,17.4a28.71,28.71,0,0,1-14.29,25.93,40,40,0,0,1-11.65,4.24,22.47,22.47,0,0,1,13.94,9.61,42,42,0,0,1,4.65,6.67l16.07,31.11H674.75L657,880.76c-2.24-4.25-4.25-7-6-8.28a14,14,0,0,0-8.13-2.49H640v43.58ZM640,849.71h14a49.74,49.74,0,0,0,8.78-1.47,8.76,8.76,0,0,0,5.39-3.37,9.91,9.91,0,0,0,2.09-6.22q0-5.21-3.3-8t-12.38-2.78H640Z"/><path class="cls-2" d="M715.31,806.2H816.17v26.51H782.33v80.86H749.15V832.71H715.31Z"/><path class="cls-2" d="M902.67,869.63l29.07,8.79a53.58,53.58,0,0,1-9.23,20.43,40,40,0,0,1-15.63,12.38q-9.35,4.17-23.77,4.17-17.5,0-28.6-5.08t-19.15-17.9q-8.07-12.81-8.06-32.79,0-26.64,14.17-41t40.1-14.31q20.29,0,31.9,8.2t17.25,25.2l-29.3,6.52a24.9,24.9,0,0,0-3.22-7.18,19.19,19.19,0,0,0-6.81-5.86,19.55,19.55,0,0,0-9-2q-11.28,0-17.29,9.07-4.55,6.74-4.54,21.14,0,17.85,5.42,24.47t15.24,6.62q9.51,0,14.39-5.35T902.67,869.63Z"/></svg>